# xmcd
#
# Track frame offsets:
# 150
# 16142
# 31643
# 48343
# 64228
# 77875
# 96007
# 111138
# 131283
# 148356
# 161782
# 181678
# 198683
# 216233
# 236405
# 254026
# 269785
# 284056
# 297734
# 313882
#
# Disc length: 4437 seconds
#
#
# Revision: 0
# Processed by: cddbd v1.5.1PL0 Copyright (c) Steve Scherf et al.
# Submitted via: FreeRIP 2.80 
#
DISCID=3f115314
DTITLE=Various Artist - Saloon Tunes 30
DYEAR=1900
DGENRE=country
TTITLE0=Allsion Paige /The End of The World
TTITLE1=Amanda Scott - Somebody To Love
TTITLE2=Andy Griggs/ Waitin On Sundown
TTITLE3=Chalee Tennison - What I Tell Myself
TTITLE4=Chris Cagle - My Love Goes On And On
TTITLE5=chris LeDeux - Silence On The Line
TTITLE6=Clay Davidson - I Can't Lie To Me
TTITLE7=Clay Walker - Once In A Lifetime Love
TTITLE8=George Strait - Go On
TTITLE9=Jason MCCoy/ Kind of Like It's Love
TTITLE10=Jennifer Day - What If It's Me
TTITLE11=Joohn Micheal Montgomery - The Little Girl
TTITLE12=John Rich - I Pray For You
TTITLE13=Keith Urban - But For The Grace Of God
TTITLE14=Kenny Chesney - I Lost It
TTITLE15=Sons Of The Desert - Everybody's Gotta Grow Up Sometime
TTITLE16=Terry Clark - A Little gasoline
TTITLE17=Trace Adkins - I'm Gonna Love You Anyway
TTITLE18=Brooks and dunn - Rock My World (little Country Girl)
TTITLE19=Jimmy Buffet - Margaritaville
EXTD=
EXTT0=
EXTT1=
EXTT2=
EXTT3=
EXTT4=
EXTT5=
EXTT6=
EXTT7=
EXTT8=
EXTT9=
EXTT10=
EXTT11=
EXTT12=
EXTT13=
EXTT14=
EXTT15=
EXTT16=
EXTT17=
EXTT18=
EXTT19=
PLAYORDER=
